<?xml version="1.0" encoding="utf-8"?>
<!-- Generator: Adobe Illustrator 19.2.1, SVG Export Plug-In . SVG Version: 6.00 Build 0)  -->
<svg version="1.1" id="Layer_1" xmlns="http://www.w3.org/2000/svg" xmlns:xlink="http://www.w3.org/1999/xlink" x="0px" y="0px"
	 viewBox="0 0 141.8 40.6" style="enable-background:new 0 0 141.8 40.6;" xml:space="preserve">
<style type="text/css">
	.st0{fill:#FFFFFF;}
	.st1{fill:#1E8CD7;}
	.st2{fill:#41C3FF;}
	.st3{fill:url(#SVGID_1_);}
	.st4{fill:url(#SVGID_2_);}
</style>
<g>
	<g>
		<polygon class="st0" points="53.4,8.7 57.4,8.7 57.4,19.9 60.1,19.9 60.1,8.7 64.1,8.7 64.1,6.1 53.4,6.1 		"/>
		<rect x="66.9" y="6.1" class="st0" width="2.7" height="13.8"/>
		<polygon class="st0" points="82.8,15.2 76,6.1 73.4,6.1 73.4,19.9 76.1,19.9 76.1,11 82.9,19.9 85.5,19.9 85.5,6.1 82.8,6.1 		"/>
		<path class="st0" d="M96.5,15.3h2.6c-0.4,1.5-1.7,2.4-3.6,2.4c-3.1,0-4.5-2.4-4.5-4.6c0-2.3,1.5-4.7,4.3-4.7c1.6,0,2.9,0.8,3.2,2
			l0.1,0.4h2.7l-0.1-0.6c-0.4-2.5-2.9-4.3-5.9-4.3c-4.6,0-7,3.7-7,7.3c0,3.5,2.5,7.1,7.2,7.1c3.3,0,5.8-1.9,6.4-4.9h1.5v-2.5h-6.9
			C96.5,12.9,96.5,15.3,96.5,15.3z"/>
		<polygon class="st0" points="138.8,6.1 136.1,11.6 132.6,6.1 129.5,6.1 134.7,14.4 131.9,19.9 134.8,19.9 141.8,6.1 		"/>
		<path class="st0" d="M113.3,14.7c1.4-0.8,2.2-2.3,2.2-4c0-2.5-2-4.6-4.6-4.6h-5.3v13.8h2.7v-4.5h2.2l2.1,4.6h3L113.3,14.7z
			 M110.9,12.8h-2.6V8.6h2.6c1.1,0,2.1,0.9,2.1,2.1C113,11.9,112.1,12.8,110.9,12.8z"/>
		<path class="st0" d="M124.8,6.3V6.2h-2.4L117.6,20h2.9l1-3.1h4l1,3.1h2.9L124.8,6.3z M122.1,14.6l1.5-4.4l1.5,4.4H122.1z"/>
		<path class="st0" d="M48.3,12l-2.5-0.6c-1-0.2-1.5-0.7-1.5-1.5c0-1,0.9-1.6,2.2-1.6c1.4,0,2.2,0.7,2.5,1.6h2.8
			c-0.4-2.3-2.2-4-5.4-4c-2.9,0-4.9,1.7-4.9,4.2c0,2.2,1.5,3.3,3.5,3.7l2.4,0.6c1.2,0.3,1.7,0.7,1.7,1.5c0,1.1-0.9,1.7-2.3,1.7
			c-1.3,0-2.3-0.6-2.7-1.8h-2.9c0.5,2.6,2.6,4.1,5.7,4.1c2.9,0,5.1-1.6,5.1-4.2C51.9,13.8,50.6,12.5,48.3,12z"/>
	</g>
	<g>
		<path class="st1" d="M50.2,34.6h-1.9v-5.3l-1.8,5.3H45l-1.9-5.3v5.3h-1.9v-8.5h2.3l2.3,5.9l2.3-5.9h2.2L50.2,34.6L50.2,34.6z"/>
		<path class="st1" d="M52.2,26h2v5.6c0,0.8,0.5,1.4,1.3,1.4s1.4-0.7,1.4-1.4V26h2v5.6c0,1.8-1.3,3.1-3.3,3.1s-3.3-1.4-3.3-3.1V26
			H52.2z"/>
		<path class="st1" d="M62.4,31.7c0,0.9,0.6,1.5,1.4,1.5c0.7,0,1.1-0.4,1.1-1c0-0.7-0.6-0.9-1.3-1.2c-1.5-0.6-2.9-1.1-2.9-2.7
			c0-1.7,1.4-2.5,3-2.5c2,0,3,1.3,3,2.7h-2c0-0.8-0.4-1.2-1.1-1.2c-0.5,0-1,0.3-1,0.9c0,0.5,0.5,0.9,1.2,1.1c1.5,0.5,3,1.1,3,2.8
			c0,1.7-1.3,2.7-3.2,2.7c-1.9,0-3.3-1.1-3.3-3L62.4,31.7L62.4,31.7z"/>
		<path class="st1" d="M68.5,26h2v8.5h-2V26z"/>
		<path class="st1" d="M81,31.5c-0.3,1.8-1.9,3.3-4.3,3.3c-2.9,0-4.6-2.1-4.6-4.5c0-2.3,1.6-4.5,4.6-4.5c2.5,0,4.1,1.6,4.3,3.5h-2.1
			c-0.2-1-0.9-1.8-2.2-1.8c-1.6,0-2.6,1.3-2.6,2.7c0,1.5,1,2.7,2.6,2.7c1.1,0,1.9-0.7,2.1-1.5L81,31.5L81,31.5z"/>
	</g>
	<path class="st1" d="M17.5,0c0.1,2,1.6,12.1,9.1,21.5l0,0c1.6,2,3.4,3.9,5.6,5.6L17.5,40.6L2.8,27.2c2.2-1.8,4-3.7,5.6-5.6l0,0
		C15.8,12.2,17.3,2,17.5,0"/>
	<path class="st2" d="M34.9,12.6L17.5,0l0,0l0,0l0,0l0,0L0,12.6c3.4,2.9,6.2,5.9,8.4,8.9l0,0l0,0c7.3,9.8,8.9,16.9,9.1,19.1l0,0l0,0
		c0.2-2.2,1.8-9.2,9.1-19.1l0,0l0,0C28.8,18.5,31.5,15.5,34.9,12.6z"/>
	
		<linearGradient id="SVGID_1_" gradientUnits="userSpaceOnUse" x1="14.6177" y1="10.9428" x2="9.2257" y2="7.8298" gradientTransform="matrix(1 0 0 -1 0 41.08)">
		<stop  offset="0" style="stop-color:#464646;stop-opacity:0.6"/>
		<stop  offset="1" style="stop-color:#464646;stop-opacity:0"/>
	</linearGradient>
	<path class="st3" d="M17.5,40.6L2.8,27.2c2.2-1.8,4-3.7,5.6-5.6C15.7,31.3,17.3,38.4,17.5,40.6z"/>
	
		<linearGradient id="SVGID_2_" gradientUnits="userSpaceOnUse" x1="20.1428" y1="29.1567" x2="27.5264" y2="33.6991" gradientTransform="matrix(1 0 0 -1 0 41.08)">
		<stop  offset="0" style="stop-color:#1E8CD7;stop-opacity:0.67"/>
		<stop  offset="1" style="stop-color:#1E8CD7;stop-opacity:0"/>
	</linearGradient>
	<path class="st4" d="M17.5,0c0.1,2,1.6,12.1,9.1,21.5c2.2-3,5-6,8.4-8.9L17.5,0z"/>
</g>
</svg>
